<?xml version="1.0" encoding="utf-8"?>
<!-- Generator: Adobe Illustrator 25.2.0, SVG Export Plug-In . SVG Version: 6.00 Build 0)  -->
<svg version="1.1" id="Calque_1" xmlns="http://www.w3.org/2000/svg" xmlns:xlink="http://www.w3.org/1999/xlink" x="0px" y="0px"
	 viewBox="0 0 64 65.9" style="enable-background:new 0 0 64 65.9;" xml:space="preserve">
<style type="text/css">
	.st0{fill:#FF060A;}
</style>
<g id="tron">
	<path class="st0" d="M61.6,20.2c-3-2.8-7.2-7-10.5-10l-0.2-0.1c-0.3-0.3-0.7-0.5-1.1-0.6l0,0C41.6,8,3.7,0.9,2.9,1
		C2.7,1,2.5,1.1,2.3,1.2L2.2,1.3C1.9,1.6,1.7,1.8,1.6,2.2l0,0.1V3v0.1C5.9,15,22.7,54,26,63.1c0.2,0.6,0.6,1.8,1.3,1.9h0.2
		c0.4,0,2-2.1,2-2.1s29-35.1,31.9-38.9c0.4-0.5,0.7-1,1-1.5C62.5,21.6,62.2,20.8,61.6,20.2z M36.9,24.3l12.4-10.2l7.2,6.7L36.9,24.3
		z M32.1,23.7L10.8,6.2l34.4,6.4L32.1,23.7z M34,28.2l21.8-3.5l-24.9,30L34,28.2z M7.9,8l22.4,19l-3.2,27.8L7.9,8z"/>
</g>
</svg>
