<?xml version="1.0" encoding="utf-8"?>
<!-- Generator: Adobe Illustrator 25.2.0, SVG Export Plug-In . SVG Version: 6.00 Build 0)  -->
<svg version="1.1" baseProfile="tiny" id="Layer_1" xmlns="http://www.w3.org/2000/svg" xmlns:xlink="http://www.w3.org/1999/xlink"
	 x="0px" y="0px" viewBox="0 0 510 500" overflow="visible" xml:space="preserve">
<path display="none" fill-rule="evenodd" fill="#50AF95" d="M96.5,34.7L5.4,226.2c-0.7,1.5-0.4,3.2,0.8,4.3l246.2,235.9
	c1.5,1.4,3.7,1.4,5.2,0l246.2-235.9c1.2-1.1,1.5-2.9,0.8-4.3L413.5,34.7c-0.6-1.3-1.9-2.2-3.4-2.2H99.9
	C98.5,32.5,97.2,33.3,96.5,34.7L96.5,34.7z"/>
<circle fill-rule="evenodd" fill="#50AF95" cx="255" cy="250" r="235.7"/>
<path fill-rule="evenodd" fill="#FFFFFF" d="M294.9,276.9L294.9,276.9c-2,0.1-12,0.8-34.5,0.8c-17.9,0-30.5-0.6-35-0.8l0,0
	c-69-3.1-120.7-15.1-120.7-29.4c0-14.4,51.5-26.4,120.7-29.4v47c4.5,0.3,17.4,1.1,35.3,1.1c21.4,0,32.2-0.9,34.1-1.1v-47
	c68.9,3.1,120.3,15.1,120.3,29.4S363.8,273.8,294.9,276.9L294.9,276.9L294.9,276.9z M294.9,213.1v-42h96.2V107H129.3v64.1h96.2v42
	c-78.2,3.6-137,19.1-137,37.6s58.8,34,137,37.6V423h69.5V288.3c78-3.6,136.6-19.1,136.6-37.6S373,216.8,294.9,213.1L294.9,213.1
	L294.9,213.1z M294.9,213.1L294.9,213.1z"/>
<circle fill-rule="evenodd" fill="#FF060A" cx="402" cy="406.4" r="79.3"/>
<g id="tron">
	<path fill="#FFFFFF" d="M461,394c-5.4-5-12.9-12.5-18.8-17.9l-0.4-0.2c-0.5-0.5-1.3-0.9-2-1.1l0,0c-14.7-2.7-82.6-15.4-84-15.2
		c-0.4,0-0.7,0.2-1.1,0.4l-0.2,0.2c-0.5,0.5-0.9,0.9-1.1,1.6v0.2v1.3v0.2c7.7,21.3,37.8,91.2,43.7,107.5c0.4,1.1,1.1,3.2,2.3,3.4
		h0.4c0.7,0,3.6-3.8,3.6-3.8s51.9-62.9,57.1-69.7c0.7-0.9,1.3-1.8,1.8-2.7C462.6,396.5,462.1,395.1,461,394z M416.7,401.3l22.2-18.3
		l12.9,12L416.7,401.3z M408.1,400.3L370,368.9l61.6,11.5L408.1,400.3z M411.5,408.3l39-6.3L406,455.8L411.5,408.3z M364.8,372.1
		l40.1,34l-5.7,49.8L364.8,372.1z"/>
</g>
</svg>
