<?xml version="1.0" encoding="utf-8"?>
<!-- Generator: Adobe Illustrator 25.2.0, SVG Export Plug-In . SVG Version: 6.00 Build 0)  -->
<svg version="1.1" baseProfile="tiny" id="Layer_1" xmlns="http://www.w3.org/2000/svg" xmlns:xlink="http://www.w3.org/1999/xlink"
	 x="0px" y="0px" viewBox="0 0 510 500" overflow="visible" xml:space="preserve">
<path display="none" fill-rule="evenodd" fill="#50AF95" d="M96.5,34.7L5.4,226.2c-0.7,1.5-0.4,3.2,0.8,4.3l246.2,235.9
	c1.5,1.4,3.7,1.4,5.2,0l246.2-235.9c1.2-1.1,1.5-2.9,0.8-4.3L413.5,34.7c-0.6-1.3-1.9-2.2-3.4-2.2H99.9
	C98.5,32.5,97.2,33.3,96.5,34.7L96.5,34.7z"/>
<circle fill-rule="evenodd" fill="#50AF95" cx="255" cy="250" r="235.7"/>
<path fill-rule="evenodd" fill="#FFFFFF" d="M294.9,276.9L294.9,276.9c-2,0.1-12,0.8-34.5,0.8c-17.9,0-30.5-0.6-35-0.8l0,0
	c-69-3.1-120.7-15.1-120.7-29.4c0-14.4,51.5-26.4,120.7-29.4v47c4.5,0.3,17.4,1.1,35.3,1.1c21.4,0,32.2-0.9,34.1-1.1v-47
	c68.9,3.1,120.3,15.1,120.3,29.4S363.8,273.8,294.9,276.9L294.9,276.9L294.9,276.9z M294.9,213.1v-42h96.2V107H129.3v64.1h96.2v42
	c-78.2,3.6-137,19.1-137,37.6s58.8,34,137,37.6V423H295V288.3c78-3.6,136.6-19.1,136.6-37.6S373,216.8,294.9,213.1L294.9,213.1
	L294.9,213.1z M294.9,213.1L294.9,213.1z"/>
<circle fill-rule="evenodd" fill="#FF060A" cx="384.1" cy="388.5" r="97.2"/>
<g id="tron">
	<path fill="#FFFFFF" d="M456.4,373.3c-6.6-6.1-15.8-15.3-23-21.9l-0.5-0.2c-0.6-0.6-1.6-1.1-2.5-1.3l0,0
		c-18-3.3-101.2-18.9-103-18.6c-0.5,0-0.9,0.2-1.3,0.5l-0.2,0.2c-0.6,0.6-1.1,1.1-1.3,2v0.2v1.6v0.2c9.4,26.1,46.3,111.8,53.6,131.8
		c0.5,1.3,1.3,3.9,2.8,4.2h0.5c0.9,0,4.4-4.7,4.4-4.7s63.6-77.1,70-85.4c0.9-1.1,1.6-2.2,2.2-3.3
		C458.4,376.4,457.8,374.7,456.4,373.3z M402.1,382.3l27.2-22.4l15.8,14.7L402.1,382.3z M391.6,381l-46.7-38.5l75.5,14.1L391.6,381z
		 M395.8,390.8l47.8-7.7L389,449.1L395.8,390.8z M338.5,346.5l49.1,41.7l-7,61L338.5,346.5z"/>
</g>
</svg>
